<?xml version="1.0" standalone="no"?>
<!DOCTYPE svg PUBLIC "-//W3C//DTD SVG 20010904//EN"
 "http://www.w3.org/TR/2001/REC-SVG-20010904/DTD/svg10.dtd">
<svg version="1.0" xmlns="http://www.w3.org/2000/svg"
 width="625.000000pt" height="375.000000pt" viewBox="0 0 625.000000 375.000000"
 preserveAspectRatio="xMidYMid meet">

<g transform="translate(0.000000,375.000000) scale(0.100000,-0.100000)"
fill="#000000" stroke="none">
<path d="M3965 3734 c252 -51 490 -118 570 -162 102 -56 99 -105 -12 -207
-149 -136 -191 -182 -201 -219 -31 -109 70 -189 272 -215 221 -30 224 -70 35
-383 -257 -423 -241 -445 215 -292 269 89 323 97 481 69 86 -16 104 -22 131
-49 44 -44 68 -120 93 -291 24 -168 44 -246 66 -269 31 -31 63 1 180 179 117
177 187 255 229 255 49 0 93 -81 136 -248 17 -67 69 -358 83 -467 2 -16 5 498
6 1143 l1 1172 -1177 -1 c-1042 -1 -1170 -3 -1108 -15z"/>
<path d="M1 1173 l-1 -1173 1178 1 c1063 1 1171 2 1112 16 -543 123 -765 194
-799 254 -27 49 -9 75 189 269 274 270 363 401 364 542 2 160 -98 190 -450
134 -249 -40 -298 -36 -404 33 l-55 36 -145 0 c-233 1 -221 -23 -231 460 -4
198 -12 383 -17 410 -39 188 -85 159 -277 -175 -93 -163 -175 -274 -215 -295
-95 -49 -156 91 -225 520 l-23 140 -1 -1172z"/>
</g>
</svg>
