<svg width="350" height="350" viewBox="0 0 350 350" fill="none" xmlns="http://www.w3.org/2000/svg">
<g clip-path="url(#clip0_48_161)">
<path fill-rule="evenodd" clip-rule="evenodd" d="M159.301 473.735L244.01 427.329L285.383 286.015L351.14 290.731L373.573 267.886L402.977 275.641L441.286 262.595L450.394 196.951L368.574 175.372L367.92 167.483L278.912 92.7988L271.828 93.7365L241.839 23.3936L174.502 42.8137L166.522 91.2171L183.811 111.21L164.588 142.618L177.928 193.137L120.27 201.781L149.36 107.034L136.2 89.5336C135.21 88.1033 131.606 86.2173 129.583 91.2957L121.092 115.713L103.111 98.3441L103.857 33.3014C103.99 31.9334 101.992 30.0035 94.9607 28.149L87.2901 26.126C85.1594 25.564 80.8423 25.6881 80.6195 30.6802L73.0678 90.4206L54.463 80.6032C53.1444 79.554 49.2425 78.104 44.1828 80.6979L23.171 87.7833C20.4236 88.6955 17.3126 91.8502 21.5615 96.4783L31.2849 108.864C31.3527 108.984 31.4215 109.1 31.489 109.215C32.349 110.672 33.0022 111.778 28.9158 115.254L25.1481 119.171C24.0075 120.039 22.3791 122.93 24.99 127.547L28.028 136.766C28.5343 138.303 30.9984 141.057 36.804 139.782L50.9722 137.907C52.5791 137.863 56.5809 136.861 59.7334 133.203L71.0366 121.452C71.8488 120.965 74.5833 117.337 79.0235 106.723L92.0403 140.32L74.2232 207.876L41.0663 211.758L64.7092 243.949L59.3468 264.281L8.88509 300.078L19.7126 373.083L85.9641 453.692L159.301 473.735ZM35.3377 132.381L51.5966 130.355L65.3364 117.143L70.0217 107.155L56.9063 112.815L41.9786 112.386L32.1268 123.817L35.3377 132.381ZM53.9883 105.732L37.9552 104.31L30.2697 94.5661L50.003 87.1435L70.9918 98.2911L53.9883 105.732ZM137.722 306.699L176.491 201.176L113.028 211.095L74.5233 243.03L137.722 306.699ZM237.378 421.371L159.632 464.703L93.1536 447.17L142.798 318.56L257.285 353.665L237.378 421.371ZM145.34 311.514L185.44 203.536L278.697 282.849L259.827 346.619L145.34 311.514ZM226.892 194.125L228.298 230.272L186.877 195.497L172.086 145.297L191.135 114.545L276.663 101.325L315.234 133.946L283.309 174.631L226.892 194.125ZM190.654 106L256.675 96.7549L180.443 51.3956L174.591 89.1363L190.654 106ZM132.119 322.758L86.002 443.179L29.3536 372.82L132.119 322.758ZM260.668 89.3902L237.327 32.726L187.926 46.3541L260.668 89.3902ZM441.287 202.968L434.759 251.052L377.366 186.109L441.287 202.968ZM50.0287 281.466C50.9131 282.26 63.1004 323.496 69.0836 344.014L26.6087 365.081L17.488 303.75L50.0287 281.466ZM98.2203 212.802L69.8082 237.577L54.4372 218.091L98.2203 212.802ZM402.323 267.752L431.577 257.93L369.935 188.358L375.476 260.671L402.323 267.752ZM132.45 313.726L80.1084 338.504L96.3686 276.852L132.45 313.726ZM284.089 277.957L347.117 282.655L367.753 261.44L361.25 172.038L320.761 138.911L288.664 180.252L281.458 238.681L241.736 241.533L284.089 277.957Z" fill="white"/>
<path d="M53.9883 105.732L37.9551 104.31L30.2696 94.5661L50.003 87.1435L70.9917 98.2911L53.9883 105.732Z" fill="#10B981"/>
<path d="M51.5965 130.355L35.3376 132.381L32.1267 123.817L41.9785 112.386L56.9062 112.815L70.0216 107.155L65.3363 117.143L51.5965 130.355Z" fill="#064E3B"/>
</g>
<defs>
<clipPath id="clip0_48_161">
<rect width="350" height="350" fill="white"/>
</clipPath>
</defs>
</svg>
